<svg width="269" height="156" viewBox="0 0 269 156" fill="none" xmlns="http://www.w3.org/2000/svg">
<path d="M135.5 0C163.943 0 187 21.1856 187 47.3193L186.996 47.9316C186.639 73.7835 163.72 94.6396 135.5 94.6396L134.834 94.6357C106.92 94.3107 84.3577 73.5798 84.0039 47.9316L84 47.3193C84.0001 21.1856 107.057 0 135.5 0ZM135.5 4C108.941 4 88.0001 23.7067 88 47.3193C88 70.932 108.941 90.6396 135.5 90.6396C162.059 90.6396 183 70.932 183 47.3193C183 23.7067 162.059 4 135.5 4ZM136 39.3965C141.211 39.3965 145.5 43.3247 145.5 48.2471C145.5 53.1696 141.211 57.0977 136 57.0977C134.25 57.0977 132.605 56.6529 131.19 55.8779L115 66.8047L127.42 52.0527C127.311 51.8403 127.212 51.6229 127.121 51.4014L92.127 47.2812C92.127 47.2812 124.366 44.7158 127.403 44.4766C128.928 41.4636 132.221 39.3965 136 39.3965ZM136 40.3965C131.27 40.3965 127.5 43.9461 127.5 48.2471C127.5 52.5482 131.27 56.0977 136 56.0977C140.73 56.0977 144.5 52.5482 144.5 48.2471C144.5 43.9461 140.73 40.3965 136 40.3965Z" fill="black"/>
<path d="M141.045 55.6152L154.079 64.4115L144.205 52.6834L141.045 55.6152Z" fill="black" stroke="#0F0F0F"/>
<path d="M141.045 40.855L154.079 32.0587L144.205 43.7868L141.045 40.855Z" fill="black" stroke="#0F0F0F"/>
<path d="M130.745 40.8917L118.546 32.2441L128.024 43.776L130.745 40.8917Z" fill="black" stroke="#0F0F0F"/>
<path d="M174.908 47.3775C174.75 47.3649 174.589 47.3516 174.424 47.3386C171.099 47.0741 166.665 46.7214 162.229 46.3687C157.794 46.0161 153.357 45.663 150.027 45.3984C148.362 45.2662 146.973 45.1553 145.999 45.0782C145.605 45.0469 145.278 45.022 145.03 45.0023C145.034 45.0436 145.037 45.0862 145.042 45.1287C145.06 45.3052 145.08 45.4821 145.095 45.6152C145.103 45.6817 145.109 45.7376 145.114 45.7764C145.115 45.783 145.115 45.7892 145.115 45.7948L145.574 47.3108L145.605 47.4112L145.592 47.514L145.195 50.8757L174.908 47.3775Z" fill="black" stroke="black"/>
<path d="M135.999 11.9177C135.971 12.1751 135.942 12.4416 135.913 12.7159C135.584 15.7974 135.145 19.9063 134.705 24.0165C134.266 28.1267 133.827 32.2385 133.497 35.3248C133.332 36.868 133.195 38.1552 133.099 39.0575C133.063 39.395 133.034 39.6788 133.01 39.9019C133.064 39.8979 133.121 39.8944 133.177 39.89C133.368 39.8752 133.56 39.8594 133.704 39.847C133.776 39.8409 133.836 39.8355 133.878 39.8318C133.888 39.831 133.897 39.8308 133.904 39.8301L135.557 39.4215L135.643 39.4002L135.733 39.411L139.411 39.83L135.999 11.9177Z" fill="black" stroke="black"/>
<path d="M135.999 84.6365C135.971 84.3791 135.942 84.1126 135.913 83.8383C135.584 80.7568 135.145 76.6479 134.705 72.5377C134.266 68.4275 133.827 64.3157 133.497 61.2294C133.332 59.6862 133.195 58.399 133.099 57.4967C133.063 57.1592 133.034 56.8754 133.01 56.6523C133.064 56.6563 133.121 56.6598 133.177 56.6642C133.368 56.679 133.56 56.6948 133.704 56.7072C133.776 56.7133 133.836 56.7187 133.878 56.7224C133.888 56.7232 133.897 56.7234 133.904 56.7241L135.557 57.1327L135.643 57.154L135.733 57.1432L139.411 56.7242L135.999 84.6365Z" fill="black" stroke="black"/>
<path d="M45.824 106.2V151H38.976L14.272 120.664V151H6.016V106.2H12.864L37.568 136.536V106.2H45.824ZM78.7565 151.64C74.1912 151.64 70.0738 150.659 66.4045 148.696C62.7352 146.691 59.8552 143.939 57.7645 140.44C55.6738 136.899 54.6285 132.952 54.6285 128.6C54.6285 124.248 55.6738 120.323 57.7645 116.824C59.8552 113.283 62.7352 110.531 66.4045 108.568C70.0738 106.563 74.1912 105.56 78.7565 105.56C83.3218 105.56 87.4392 106.563 91.1085 108.568C94.7778 110.531 97.6578 113.261 99.7485 116.76C101.839 120.259 102.885 124.205 102.885 128.6C102.885 132.995 101.839 136.941 99.7485 140.44C97.6578 143.939 94.7778 146.691 91.1085 148.696C87.4392 150.659 83.3218 151.64 78.7565 151.64ZM78.7565 144.344C81.7432 144.344 84.4312 143.683 86.8205 142.36C89.2098 140.995 91.0872 139.117 92.4525 136.728C93.8178 134.296 94.5005 131.587 94.5005 128.6C94.5005 125.613 93.8178 122.925 92.4525 120.536C91.0872 118.104 89.2098 116.227 86.8205 114.904C84.4312 113.539 81.7432 112.856 78.7565 112.856C75.7698 112.856 73.0818 113.539 70.6925 114.904C68.3032 116.227 66.4258 118.104 65.0605 120.536C63.6952 122.925 63.0125 125.613 63.0125 128.6C63.0125 131.587 63.6952 134.296 65.0605 136.728C66.4258 139.117 68.3032 140.995 70.6925 142.36C73.0818 143.683 75.7698 144.344 78.7565 144.344ZM152.856 151L152.792 121.304L138.072 145.88H134.36L119.64 121.688V151H111.704V106.2H118.552L136.344 135.896L153.816 106.2H160.664L160.728 151H152.856ZM201.885 140.632H179.485L175.069 151H166.492L186.653 106.2H194.845L215.069 151H206.365L201.885 140.632ZM199.132 134.104L190.685 114.52L182.301 134.104H199.132ZM220.766 106.2H240.35C245.129 106.2 249.374 107.139 253.086 109.016C256.798 110.851 259.678 113.475 261.726 116.888C263.774 120.259 264.798 124.163 264.798 128.6C264.798 133.037 263.774 136.963 261.726 140.376C259.678 143.747 256.798 146.371 253.086 148.248C249.374 150.083 245.129 151 240.35 151H220.766V106.2ZM239.966 143.96C243.251 143.96 246.131 143.341 248.606 142.104C251.123 140.824 253.043 139.032 254.366 136.728C255.731 134.381 256.414 131.672 256.414 128.6C256.414 125.528 255.731 122.84 254.366 120.536C253.043 118.189 251.123 116.397 248.606 115.16C246.131 113.88 243.251 113.24 239.966 113.24H229.086V143.96H239.966Z" fill="black"/>
</svg>
